<svg xmlns="http://www.w3.org/2000/svg" version="1.1" xmlns:xlink="http://www.w3.org/1999/xlink" xmlns:svgjs="http://svgjs.dev/svgjs" width="1500" height="1500" viewBox="0 0 1500 1500"><rect width="1500" height="1500" fill="#000000"></rect><g transform="matrix(0.6666666666666666,0,0,0.6666666666666666,249.39393939393938,608.5301830127403)"><svg viewBox="0 0 396 112" data-background-color="#3d2200" preserveAspectRatio="xMidYMid meet" height="424" width="1500" xmlns="http://www.w3.org/2000/svg" xmlns:xlink="http://www.w3.org/1999/xlink"><g id="tight-bounds" transform="matrix(1,0,0,1,0.2400000000000091,0.05407842891429482)"><svg viewBox="0 0 395.52 111.89184314217141" height="111.89184314217141" width="395.52"><g><svg viewBox="0 0 397.4975999999999 112.45130235788226" height="111.89184314217141" width="395.52"><g><rect width="397.4975999999999" height="1.9550897546153208" x="0" y="60.66842113412693" fill="#ffffff" opacity="1" stroke-width="0" stroke="transparent" fill-opacity="1" class="rect-qz-0" data-fill-palette-color="primary" rx="1%" id="qz-0" data-palette-color="#f8fddd"></rect></g><g><rect width="397.4975999999999" height="1.9550897546153208" x="0" y="65.18252889216545" fill="#ffffff" opacity="1" stroke-width="0" stroke="transparent" fill-opacity="1" class="rect-qz-1" data-fill-palette-color="primary" rx="1%" id="qz-1" data-palette-color="#f8fddd"></rect></g><g transform="matrix(1,0,0,1,0.9887999999999693,72.25565465362716)"><svg viewBox="0 0 395.52 40.195647704255094" height="40.195647704255094" width="395.52"><g id="textblocktransform"><svg viewBox="0 0 395.52 40.195647704255094" height="40.195647704255094" width="395.52" id="textblock"><g><svg viewBox="0 0 395.52 21.67961167948622" height="21.67961167948622" width="395.52"><g transform="matrix(1,0,0,1,0,0)"><svg width="395.52" viewBox="0.29 -35.35 653.7800000000001 35.84" height="21.67961167948622" data-palette-color="#f8fddd"><path d="M0.29-0.24L0.29-0.24 6.49-34.59Q6.54-34.79 6.74-34.79L6.74-34.79 13.99-34.79Q14.18-34.79 14.23-34.59L14.23-34.59 20.19-0.24Q20.21 0 20 0L20 0 14.45 0Q14.21 0 14.18-0.24L14.18-0.24 13.65-3.91 6.84-3.91 6.3-0.24Q6.27 0 6.05 0L6.05 0 0.49 0Q0.29 0 0.29-0.24ZM12.65-9.25L10.6-23.29 10.3-25.15 10.08-23.29 7.84-9.25 12.65-9.25ZM32.47 0L32.47 0 23.51 0Q23.31 0 23.31-0.24L23.31-0.24 23.41-34.59Q23.41-34.79 23.61-34.79L23.61-34.79 33.23-34.79Q36.03-34.79 38.33-33.42L38.33-33.42Q40.57-32.06 41.87-29.8 43.16-27.54 43.16-24.9L43.16-24.9Q43.16-22.75 42.19-20.9 41.21-19.04 39.87-17.9L39.87-17.9Q41.31-16.46 42.11-14.55 42.92-12.65 42.92-10.55L42.92-10.55Q42.92-7.64 41.53-5.25L41.53-5.25Q40.11-2.86 37.74-1.43 35.37 0 32.47 0ZM33.23-28.86L33.23-28.86 29.42-28.86 29.42-21 33.23-21Q34.96-21 36.03-22.23 37.11-23.46 37.11-24.9L37.11-24.9Q37.11-26.49 35.96-27.67 34.81-28.86 33.23-28.86ZM32.47-14.94L32.47-14.94 29.42-14.94 29.37-6.1 32.47-6.1Q34.27-6.1 35.57-7.42 36.86-8.74 36.86-10.55L36.86-10.55Q36.86-12.35 35.57-13.65 34.27-14.94 32.47-14.94ZM52.36 0L52.36 0 46.7 0Q46.5 0 46.5-0.24L46.5-0.24 46.6-34.59Q46.6-34.79 46.8-34.79L46.8-34.79 56.9-34.79Q59.61-34.79 61.88-33.47L61.88-33.47Q64.16-32.15 65.51-29.93 66.87-27.71 66.87-24.9L66.87-24.9Q66.87-23.07 66.3-21.58L66.3-21.58Q65.74-20.09 65-19.07 64.25-18.04 63.64-17.55L63.64-17.55Q66.35-14.55 66.35-10.5L66.35-10.5 66.4-0.24Q66.4 0 66.16 0L66.16 0 60.49 0Q60.3 0 60.3-0.15L60.3-0.15 60.3-10.5Q60.3-12.3 59.03-13.62 57.76-14.94 55.9-14.94L55.9-14.94 52.61-14.94 52.56-0.24Q52.56 0 52.36 0ZM56.9-28.81L56.9-28.81 52.61-28.81 52.61-20.95 56.9-20.95Q58.44-20.95 59.65-22.09 60.86-23.24 60.86-24.9L60.86-24.9Q60.86-26.49 59.69-27.65 58.52-28.81 56.9-28.81ZM68.91-0.24L68.91-0.24 75.11-34.59Q75.16-34.79 75.36-34.79L75.36-34.79 82.61-34.79Q82.81-34.79 82.85-34.59L82.85-34.59 88.81-0.24Q88.84 0 88.62 0L88.62 0 83.07 0Q82.83 0 82.81-0.24L82.81-0.24 82.27-3.91 75.46-3.91 74.92-0.24Q74.89 0 74.68 0L74.68 0 69.11 0Q68.91 0 68.91-0.24ZM81.27-9.25L79.22-23.29 78.92-25.15 78.7-23.29 76.46-9.25 81.27-9.25ZM97.79 0L97.79 0 92.13 0Q91.93 0 91.93-0.24L91.93-0.24 91.98-34.59Q91.98-34.79 92.23-34.79L92.23-34.79 97.79-34.79Q98.04-34.79 98.04-34.59L98.04-34.59 97.99-21 105.48-21 105.48-34.59Q105.48-34.79 105.68-34.79L105.68-34.79 111.24-34.79Q111.49-34.79 111.49-34.59L111.49-34.59 111.59-0.24Q111.59 0 111.34 0L111.34 0 105.73 0Q105.48 0 105.48-0.24L105.48-0.24 105.48-14.94 97.99-14.94 97.99-0.24Q97.99 0 97.79 0ZM113.98-0.24L113.98-0.24 120.18-34.59Q120.23-34.79 120.42-34.79L120.42-34.79 127.67-34.79Q127.87-34.79 127.92-34.59L127.92-34.59 133.87-0.24Q133.9 0 133.68 0L133.68 0 128.14 0Q127.89 0 127.87-0.24L127.87-0.24 127.33-3.91 120.52-3.91 119.98-0.24Q119.96 0 119.74 0L119.74 0 114.17 0Q113.98 0 113.98-0.24ZM126.33-9.25L124.28-23.29 123.99-25.15 123.77-23.29 121.52-9.25 126.33-9.25ZM142.86 0L142.86 0 137.19 0Q137 0 137-0.24L137-0.24 137.09-34.59Q137.09-34.79 137.29-34.79L137.29-34.79 143.39-34.79Q143.59-34.79 143.74-34.59L143.74-34.59 148.3-28 152.84-34.59Q152.99-34.79 153.21-34.79L153.21-34.79 159.34-34.79Q159.56-34.79 159.56-34.59L159.56-34.59 159.65-0.24Q159.65 0 159.46 0L159.46 0 153.79 0Q153.6 0 153.6-0.24L153.6-0.24 153.55-25.76 148.3-18.14 143.1-25.76 143.05-0.24Q143.05 0 142.86 0ZM187.48 0L187.48 0 181.84 0Q181.62 0 181.62-0.24L181.62-0.24 181.62-28.76 175.13-28.76Q174.88-28.76 174.88-29L174.88-29 174.93-34.59Q174.93-34.79 175.13-34.79L175.13-34.79 194.12-34.79Q194.39-34.79 194.39-34.59L194.39-34.59 194.39-29Q194.39-28.76 194.19-28.76L194.19-28.76 187.63-28.76 187.68-0.24Q187.68 0 187.48 0ZM213.16 0L213.16 0 197 0Q196.8 0 196.8-0.24L196.8-0.24 196.85-34.59Q196.85-34.79 197.05-34.79L197.05-34.79 213.11-34.79Q213.31-34.79 213.31-34.55L213.31-34.55 213.31-28.96Q213.31-28.76 213.11-28.76L213.11-28.76 202.86-28.76 202.86-20.95 213.11-20.95Q213.31-20.95 213.31-20.75L213.31-20.75 213.36-15.09Q213.36-14.89 213.16-14.89L213.16-14.89 202.86-14.89 202.86-6.15 213.16-6.15Q213.36-6.15 213.36-5.91L213.36-5.91 213.36-0.2Q213.36 0 213.16 0ZM226.29 0.49L226.29 0.49Q223.63 0.49 221.39-0.88L221.39-0.88Q219.16-2.25 217.83-4.53 216.5-6.81 216.5-9.55L216.5-9.55 216.5-11.84Q216.5-12.11 216.75-12.11L216.75-12.11 222.36-12.11Q222.56-12.11 222.56-11.84L222.56-11.84 222.56-9.55Q222.56-7.91 223.66-6.73 224.76-5.54 226.29-5.54L226.29-5.54Q227.86-5.54 228.95-6.75 230.05-7.96 230.05-9.55L230.05-9.55Q230.05-11.38 227.66-12.74L227.66-12.74Q227.27-12.99 226.65-13.34 226.02-13.7 225.17-14.16L225.17-14.16Q224.32-14.62 223.51-15.08 222.7-15.53 221.95-15.94L221.95-15.94Q219.21-17.55 217.88-19.98 216.55-22.41 216.55-25.44L216.55-25.44Q216.55-28.22 217.92-30.47L217.92-30.47Q219.29-32.69 221.5-34 223.71-35.3 226.29-35.3L226.29-35.3Q228.95-35.3 231.18-33.98L231.18-33.98Q233.4-32.64 234.73-30.42 236.06-28.2 236.06-25.44L236.06-25.44 236.06-21.34Q236.06-21.14 235.86-21.14L235.86-21.14 230.25-21.14Q230.05-21.14 230.05-21.34L230.05-21.34 230-25.44Q230-27.2 228.91-28.3 227.81-29.39 226.29-29.39L226.29-29.39Q224.76-29.39 223.66-28.22 222.56-27.05 222.56-25.44L222.56-25.44Q222.56-23.8 223.25-22.71 223.95-21.61 225.81-20.61L225.81-20.61Q226-20.51 226.71-20.12 227.42-19.73 228.28-19.25 229.15-18.77 229.86-18.4 230.57-18.02 230.71-17.94L230.71-17.94Q233.2-16.55 234.66-14.53 236.11-12.5 236.11-9.55L236.11-9.55Q236.11-6.69 234.79-4.42L234.79-4.42Q233.45-2.15 231.23-0.83 229 0.49 226.29 0.49ZM245.43 0L245.43 0 239.77 0Q239.57 0 239.57-0.24L239.57-0.24 239.62-34.59Q239.62-34.79 239.87-34.79L239.87-34.79 245.43-34.79Q245.68-34.79 245.68-34.59L245.68-34.59 245.63-21 253.12-21 253.12-34.59Q253.12-34.79 253.32-34.79L253.32-34.79 258.88-34.79Q259.13-34.79 259.13-34.59L259.13-34.59 259.23-0.24Q259.23 0 258.98 0L258.98 0 253.37 0Q253.12 0 253.12-0.24L253.12-0.24 253.12-14.94 245.63-14.94 245.63-0.24Q245.63 0 245.43 0ZM272.55 0.49L272.55 0.49Q269.89 0.49 267.65-0.88L267.65-0.88Q265.42-2.25 264.07-4.53 262.71-6.81 262.71-9.55L262.71-9.55 262.76-25.39Q262.76-28.17 264.11-30.4L264.11-30.4Q265.42-32.64 267.67-34 269.92-35.35 272.55-35.35L272.55-35.35Q275.29-35.35 277.46-34.01L277.46-34.01Q279.66-32.67 280.99-30.41 282.32-28.15 282.32-25.39L282.32-25.39 282.37-9.55Q282.37-6.81 281.05-4.54L281.05-4.54Q279.71-2.25 277.48-0.88 275.26 0.49 272.55 0.49ZM272.55-5.54L272.55-5.54Q274.07-5.54 275.19-6.77 276.31-8.01 276.31-9.55L276.31-9.55 276.26-25.39Q276.26-27.05 275.21-28.2 274.16-29.35 272.55-29.35L272.55-29.35Q271.01-29.35 269.92-28.22 268.82-27.1 268.82-25.39L268.82-25.39 268.82-9.55Q268.82-7.91 269.92-6.73 271.01-5.54 272.55-5.54ZM291.98 0L291.98 0 286.32 0Q286.12 0 286.12-0.24L286.12-0.24 286.22-34.59Q286.22-34.79 286.42-34.79L286.42-34.79 292.52-34.79Q292.72-34.79 292.86-34.59L292.86-34.59 297.43-28 301.97-34.59Q302.12-34.79 302.34-34.79L302.34-34.79 308.46-34.79Q308.68-34.79 308.68-34.59L308.68-34.59 308.78-0.24Q308.78 0 308.59 0L308.59 0 302.92 0Q302.73 0 302.73-0.24L302.73-0.24 302.68-25.76 297.43-18.14 292.23-25.76 292.18-0.24Q292.18 0 291.98 0ZM329.31 0L329.31 0 313.15 0Q312.95 0 312.95-0.24L312.95-0.24 313-34.59Q313-34.79 313.2-34.79L313.2-34.79 329.26-34.79Q329.46-34.79 329.46-34.55L329.46-34.55 329.46-28.96Q329.46-28.76 329.26-28.76L329.26-28.76 319.01-28.76 319.01-20.95 329.26-20.95Q329.46-20.95 329.46-20.75L329.46-20.75 329.51-15.09Q329.51-14.89 329.31-14.89L329.31-14.89 319.01-14.89 319.01-6.15 329.31-6.15Q329.51-6.15 329.51-5.91L329.51-5.91 329.51-0.2Q329.51 0 329.31 0ZM345.25-0.24L345.25-0.24 351.45-34.59Q351.5-34.79 351.69-34.79L351.69-34.79 358.94-34.79Q359.14-34.79 359.19-34.59L359.19-34.59 365.15-0.24Q365.17 0 364.95 0L364.95 0 359.41 0Q359.16 0 359.14-0.24L359.14-0.24 358.6-3.91 351.79-3.91 351.25-0.24Q351.23 0 351.01 0L351.01 0 345.44 0Q345.25 0 345.25-0.24ZM357.6-9.25L355.55-23.29 355.26-25.15 355.04-23.29 352.79-9.25 357.6-9.25ZM376.42 0.49L376.42 0.49Q373.71 0.49 371.54-0.85L371.54-0.85Q369.34-2.2 368.01-4.47 366.68-6.74 366.68-9.55L366.68-9.55 366.68-25.39Q366.68-28.13 368.02-30.37L368.02-30.37Q369.34-32.64 371.56-34 373.79-35.35 376.42-35.35L376.42-35.35Q379.18-35.35 381.4-34.03L381.4-34.03Q383.62-32.69 384.93-30.44 386.24-28.2 386.24-25.39L386.24-25.39 386.24-23.1Q386.24-22.9 385.99-22.9L385.99-22.9 380.38-22.9Q380.18-22.9 380.18-23.1L380.18-23.1 380.18-25Q380.18-26.9 379.11-28.15 378.03-29.39 376.42-29.39L376.42-29.39Q374.98-29.39 373.86-28.2 372.74-27 372.74-25.39L372.74-25.39 372.74-9.55Q372.74-7.91 373.83-6.73 374.93-5.54 376.42-5.54L376.42-5.54Q378.03-5.54 379.11-6.7 380.18-7.86 380.18-9.55L380.18-9.55 380.18-12.01 376.69-12.01Q376.42-12.01 376.42-12.26L376.42-12.26 376.42-17.85Q376.42-18.09 376.69-18.09L376.69-18.09 386.04-18.09Q386.24-18.09 386.24-17.85L386.24-17.85 386.24-9.55Q386.24-6.74 384.92-4.47L384.92-4.47Q383.58-2.2 381.38-0.85 379.18 0.49 376.42 0.49ZM406.11 0L406.11 0 389.95 0Q389.75 0 389.75-0.24L389.75-0.24 389.8-34.59Q389.8-34.79 389.99-34.79L389.99-34.79 406.06-34.79Q406.25-34.79 406.25-34.55L406.25-34.55 406.25-28.96Q406.25-28.76 406.06-28.76L406.06-28.76 395.8-28.76 395.8-20.95 406.06-20.95Q406.25-20.95 406.25-20.75L406.25-20.75 406.3-15.09Q406.3-14.89 406.11-14.89L406.11-14.89 395.8-14.89 395.8-6.15 406.11-6.15Q406.3-6.15 406.3-5.91L406.3-5.91 406.3-0.2Q406.3 0 406.11 0ZM428.05 0L428.05 0 409.4 0Q409.16 0 409.16-0.24L409.16-0.24 409.21-5.69 421.46-29.1 409.86-29.1Q409.64-29.1 409.64-29.3L409.64-29.3 409.64-34.55Q409.64-34.79 409.86-34.79L409.86-34.79 427.96-34.79Q428.2-34.79 428.2-34.55L428.2-34.55 428.2-29.15 416.02-5.86 428.05-5.86Q428.25-5.86 428.25-5.59L428.25-5.59 428.3-0.24Q428.3 0 428.05 0ZM447.78 0L447.78 0 431.62 0Q431.42 0 431.42-0.24L431.42-0.24 431.47-34.59Q431.47-34.79 431.66-34.79L431.66-34.79 447.73-34.79Q447.92-34.79 447.92-34.55L447.92-34.55 447.92-28.96Q447.92-28.76 447.73-28.76L447.73-28.76 437.47-28.76 437.47-20.95 447.73-20.95Q447.92-20.95 447.92-20.75L447.92-20.75 447.97-15.09Q447.97-14.89 447.78-14.89L447.78-14.89 437.47-14.89 437.47-6.15 447.78-6.15Q447.97-6.15 447.97-5.91L447.97-5.91 447.97-0.2Q447.97 0 447.78 0ZM463.71-0.24L463.71-0.24 469.92-34.59Q469.96-34.79 470.16-34.79L470.16-34.79 477.41-34.79Q477.61-34.79 477.65-34.59L477.65-34.59 483.61-0.24Q483.64 0 483.42 0L483.42 0 477.87 0Q477.63 0 477.61-0.24L477.61-0.24 477.07-3.91 470.26-3.91 469.72-0.24Q469.7 0 469.48 0L469.48 0 463.91 0Q463.71 0 463.71-0.24ZM476.07-9.25L474.02-23.29 473.72-25.15 473.5-23.29 471.26-9.25 476.07-9.25ZM494.94 0.49L494.94 0.49Q492.3 0.49 490.05-0.88L490.05-0.88Q487.81-2.25 486.48-4.55 485.15-6.86 485.15-9.59L485.15-9.59 485.25-34.59Q485.25-34.79 485.44-34.79L485.44-34.79 491.06-34.79Q491.25-34.79 491.25-34.59L491.25-34.59 491.25-9.59Q491.25-7.91 492.33-6.73 493.4-5.54 494.94-5.54L494.94-5.54Q496.55-5.54 497.62-6.73 498.7-7.91 498.7-9.59L498.7-9.59 498.7-34.59Q498.7-34.79 498.89-34.79L498.89-34.79 504.51-34.79Q504.7-34.79 504.7-34.59L504.7-34.59 504.8-9.59Q504.8-6.84 503.48-4.52L503.48-4.52Q502.14-2.22 499.92-0.87 497.7 0.49 494.94 0.49ZM517.93-0.05L517.93-0.05 508.97 0Q508.73 0 508.73-0.24L508.73-0.24 508.83-34.59Q508.83-34.79 509.02-34.79L509.02-34.79 518.37-34.84Q521.16-34.91 523.4-33.57L523.4-33.57Q525.67-32.23 527.03-29.94 528.38-27.66 528.38-24.9L528.38-24.9 528.38-10.55Q528.38-7.67 526.99-5.27L526.99-5.27Q525.57-2.91 523.23-1.5 520.89-0.1 517.93-0.05ZM518.37-28.86L518.37-28.86 514.88-28.81 514.83-6.15 517.93-6.15Q519.79-6.15 521.06-7.45 522.33-8.74 522.33-10.55L522.33-10.55 522.33-24.95Q522.33-26.54 521.16-27.72 519.98-28.91 518.37-28.86ZM538.22 0L538.22 0 532.55 0Q532.31 0 532.31-0.24L532.31-0.24 532.36-34.59Q532.36-34.79 532.55-34.79L532.55-34.79 538.17-34.79Q538.37-34.79 538.37-34.59L538.37-34.59 538.41-0.24Q538.41 0 538.22 0ZM553.48 0L553.48 0 547.84 0Q547.62 0 547.62-0.24L547.62-0.24 547.62-28.76 541.12-28.76Q540.88-28.76 540.88-29L540.88-29 540.93-34.59Q540.93-34.79 541.12-34.79L541.12-34.79 560.12-34.79Q560.38-34.79 560.38-34.59L560.38-34.59 560.38-29Q560.38-28.76 560.19-28.76L560.19-28.76 553.62-28.76 553.67-0.24Q553.67 0 553.48 0ZM581.64 0L581.64 0 576.03 0Q575.78 0 575.78-0.24L575.78-0.24 575.88-34.59Q575.88-34.79 576.08-34.79L576.08-34.79 592.09-34.79Q592.34-34.79 592.34-34.59L592.34-34.59 592.34-28.96Q592.34-28.76 592.14-28.76L592.14-28.76 581.89-28.76 581.89-21 592.14-21Q592.34-21 592.34-20.75L592.34-20.75 592.39-15.09Q592.39-14.89 592.14-14.89L592.14-14.89 581.89-14.89 581.89-0.24Q581.89 0 581.64 0ZM602.74 0L602.74 0 597.07 0Q596.83 0 596.83-0.24L596.83-0.24 596.88-34.59Q596.88-34.79 597.07-34.79L597.07-34.79 602.69-34.79Q602.88-34.79 602.88-34.59L602.88-34.59 602.93-0.24Q602.93 0 602.74 0ZM613.18 0L613.18 0 607.52 0Q607.32 0 607.32-0.24L607.32-0.24 607.42-34.59Q607.42-34.79 607.62-34.79L607.62-34.79 617.72-34.79Q620.43-34.79 622.7-33.47L622.7-33.47Q624.97-32.15 626.33-29.93 627.68-27.71 627.68-24.9L627.68-24.9Q627.68-23.07 627.12-21.58L627.12-21.58Q626.56-20.09 625.82-19.07 625.07-18.04 624.46-17.55L624.46-17.55Q627.17-14.55 627.17-10.5L627.17-10.5 627.22-0.24Q627.22 0 626.98 0L626.98 0 621.31 0Q621.12 0 621.12-0.15L621.12-0.15 621.12-10.5Q621.12-12.3 619.85-13.62 618.58-14.94 616.72-14.94L616.72-14.94 613.43-14.94 613.38-0.24Q613.38 0 613.18 0ZM617.72-28.81L617.72-28.81 613.43-28.81 613.43-20.95 617.72-20.95Q619.26-20.95 620.47-22.09 621.68-23.24 621.68-24.9L621.68-24.9Q621.68-26.49 620.51-27.65 619.33-28.81 617.72-28.81ZM637.28 0L637.28 0 631.61 0Q631.42 0 631.42-0.24L631.42-0.24 631.51-34.59Q631.51-34.79 631.71-34.79L631.71-34.79 637.81-34.79Q638.01-34.79 638.15-34.59L638.15-34.59 642.72-28 647.26-34.59Q647.41-34.79 647.63-34.79L647.63-34.79 653.76-34.79Q653.98-34.79 653.98-34.59L653.98-34.59 654.07-0.24Q654.07 0 653.88 0L653.88 0 648.21 0Q648.02 0 648.02-0.24L648.02-0.24 647.97-25.76 642.72-18.14 637.52-25.76 637.47-0.24Q637.47 0 637.28 0Z" opacity="1" transform="matrix(1,0,0,1,0,0)" fill="#ffffff" class="wordmark-text-0" data-fill-palette-color="primary" id="text-0"></path></svg></g></svg></g><g transform="matrix(1,0,0,1,78.4920893926943,26.79764768633261)"><svg viewBox="0 0 238.5358212146114 13.398000017922485" height="13.398000017922485" width="238.5358212146114"><g transform="matrix(1,0,0,1,0,0)"><svg width="238.5358212146114" viewBox="3.25 -35.5 834.9 46.9" height="13.398000017922485" data-palette-color="#f8fddd"><path d="M7.95-23.2L7.95 0 3.25 0 3.25-23Q3.25-28.9 6.43-32.2 9.6-35.5 14.85-35.5L14.85-35.5Q20.45-35.5 23.53-32.3 26.6-29.1 26.6-24.15L26.6-24.15Q26.6-21.05 25.48-18.75 24.35-16.45 22.45-15.2 20.55-13.95 18.4-13.35 16.25-12.75 13.9-12.75L13.9-12.75 10.15-12.75 10.15-17.15 14.45-17.15Q17.8-17.15 19.73-19.18 21.65-21.2 21.65-24.25L21.65-24.25Q21.65-27.25 19.88-29.18 18.1-31.1 14.8-31.1L14.8-31.1Q11.6-31.1 9.78-28.93 7.95-26.75 7.95-23.2L7.95-23.2ZM35 0L30.6 0 30.6-13.65Q30.6-19.4 32.75-21.6L32.75-21.6Q33.8-22.7 35.3-23.25 36.8-23.8 37.92-23.9 39.05-24 41-24L41-24 45.4-24 45.4-19.8 40.1-19.8Q39.1-19.8 38.55-19.75 38-19.7 37.25-19.4 36.5-19.1 35.95-18.45L35.95-18.45Q35-17.25 35-13.65L35-13.65 35 0ZM60.4-24.5L60.4-24.5Q68.9-24.15 68.9-17.45L68.9-17.45Q68.9-9.1 57.95-9.1L57.95-9.1 55.9-9.1 55.9-12.95 58.3-12.95Q61.65-12.95 62.95-13.98 64.25-15 64.25-17.4L64.25-17.4Q64.25-18.95 63.09-19.73 61.95-20.5 60.15-20.5L60.15-20.5Q56.6-20.5 54.57-18 52.55-15.5 52.55-12L52.55-12Q52.55-8.3 54.72-6 56.9-3.7 60.4-3.7L60.4-3.7Q63.55-3.7 65.55-5.25L65.55-5.25 68.55-2.3Q65.09 0.5 60.4 0.5L60.4 0.5Q54.7 0.5 51.3-2.85 47.9-6.2 47.9-11.5L47.9-11.5Q47.9-17.4 51.25-21.05 54.6-24.7 60.4-24.5ZM90.29-5.25L90.29-5.25 93.29-2.3Q89.84 0.5 85.39 0.5L85.39 0.5Q79.84 0.5 76.49-3.08 73.14-6.65 73.14-12L73.14-12Q73.14-17.25 76.67-20.88 80.19-24.5 85.39-24.5L85.39-24.5Q89.84-24.5 93.29-21.7L93.29-21.7 90.34-18.7Q88.24-20.3 85.39-20.3L85.39-20.3Q81.94-20.3 79.92-18.03 77.89-15.75 77.89-12 77.89-8.25 79.92-5.98 81.94-3.7 85.39-3.7L85.39-3.7Q88.29-3.7 90.29-5.25ZM104.04-24L104.04 0 99.64 0 99.64-19.8 95.54-19.8 97.54-24 104.04-24ZM99.44-29L99.44-29Q98.79-29.85 98.79-30.85 98.79-31.85 99.44-32.68 100.09-33.5 101.44-33.5 102.79-33.5 103.44-32.68 104.09-31.85 104.09-30.85 104.09-29.85 103.44-29.03 102.79-28.2 101.44-28.2 100.09-28.2 99.44-29ZM118.54-24L127.39-24 127.39-19.8 118.54-19.8Q117.09-19.8 116.04-19.25 114.99-18.7 114.99-17.7L114.99-17.7Q114.99-17.1 115.24-16.63 115.49-16.15 115.81-15.85 116.14-15.55 116.81-15.23 117.49-14.9 117.86-14.78 118.24-14.65 121.04-13.75 123.84-12.85 125.19-12.25 126.54-11.65 127.26-10.63 127.99-9.6 128.19-8.63 128.39-7.65 128.39-6.7L128.39-6.7Q128.39 0 119.19 0L119.19 0 110.54 0 110.54-4.2 119.19-4.2Q123.89-4.2 123.89-6.7L123.89-6.7Q123.89-7.9 122.51-8.7 121.14-9.5 119.16-10.05 117.19-10.6 115.21-11.33 113.24-12.05 111.86-13.68 110.49-15.3 110.49-17.7L110.49-17.7Q110.49-20.75 112.84-22.38 115.19-24 118.54-24L118.54-24ZM139.89-24L139.89 0 135.49 0 135.49-19.8 131.39-19.8 133.39-24 139.89-24ZM135.29-29L135.29-29Q134.64-29.85 134.64-30.85 134.64-31.85 135.29-32.68 135.94-33.5 137.29-33.5 138.64-33.5 139.29-32.68 139.94-31.85 139.94-30.85 139.94-29.85 139.29-29.03 138.64-28.2 137.29-28.2 135.94-28.2 135.29-29ZM149.33-20.85L149.33-20.85Q152.83-24.5 158.08-24.5L158.08-24.5Q160.63-24.5 162.86-23.53 165.08-22.55 166.76-20.85 168.43-19.15 169.38-16.88 170.33-14.6 170.33-12L170.33-12Q170.33-9.4 169.41-7.13 168.48-4.85 166.83-3.15 165.18-1.45 162.93-0.48 160.68 0.5 158.08 0.5L158.08 0.5Q155.43 0.5 153.21-0.48 150.98-1.45 149.33-3.15 147.68-4.85 146.76-7.13 145.83-9.4 145.83-12L145.83-12Q145.83-17.3 149.33-20.85ZM158.08-20.3L158.08-20.3Q154.58-20.3 152.46-18 150.33-15.7 150.33-12 150.33-8.3 152.46-6 154.58-3.7 158.08-3.7L158.08-3.7Q161.63-3.7 163.73-6.03 165.83-8.35 165.83-12 165.83-15.65 163.73-17.98 161.63-20.3 158.08-20.3ZM175.83 0L175.83-24 184.48-24Q190.03-24 192.43-22.35L192.43-22.35Q194.58-20.9 195.16-18.88 195.73-16.85 195.73-13.55L195.73-13.55 195.73 0 191.33 0 191.33-13.5Q191.33-14.4 191.28-15.03 191.23-15.65 190.93-16.63 190.63-17.6 190.08-18.23 189.53-18.85 188.48-19.33 187.43-19.8 185.93-19.8L185.93-19.8 180.23-19.8 180.23 0 175.83 0ZM217.83-12.8L217.83 0 213.38 0 213.38-22Q213.38-27.4 216.85-31.2 220.33-35 225.83-35L225.83-35 237.28-35 237.28 0 232.58 0 232.58-30.6 225.83-30.6Q222.18-30.6 220-28.45 217.83-26.3 217.83-21.6L217.83-21.6 217.83-17.35Q220.63-20.3 225.83-20.3L225.83-20.3 230.38-20.3 230.38-15.9 225.83-15.9Q222.93-15.9 221.1-15.2 219.28-14.5 217.83-12.8L217.83-12.8ZM244.02 0L244.02-24 252.67-24Q258.22-24 260.62-22.35L260.62-22.35Q262.77-20.9 263.35-18.88 263.92-16.85 263.92-13.55L263.92-13.55 263.92 0 259.52 0 259.52-13.5Q259.52-14.4 259.47-15.03 259.42-15.65 259.12-16.63 258.82-17.6 258.27-18.23 257.72-18.85 256.67-19.33 255.62-19.8 254.12-19.8L254.12-19.8 248.42-19.8 248.42 0 244.02 0ZM288.67-4.2L288.67-35 293.17-35 293.17 0 281.42 0Q275.97 0 272.57-3.48 269.17-6.95 269.17-12.25L269.17-12.25Q269.17-17.45 272.69-20.98 276.22-24.5 281.07-24.5L281.07-24.5Q284.17-24.5 286.87-23L286.87-23 286.87-18.5Q284.37-20.3 281.07-20.3L281.07-20.3Q278.07-20.3 276-18.07 273.92-15.85 273.92-12.25L273.92-12.25Q273.92-8.6 275.9-6.4 277.87-4.2 281.42-4.2L281.42-4.2 288.67-4.2ZM330.96-4.4L330.96 0 311.06 0 311.06-26.65Q311.06-30.35 313.42-32.6L313.42-32.6Q315.01-34.1 317.01-34.55 319.01-35 321.92-35L321.92-35 330.96-35 330.96-30.6 321.26-30.6Q315.76-30.6 315.76-26L315.76-26 315.76-20.3 327.31-20.3 327.31-15.9 315.76-15.9 315.76-4.4 330.96-4.4ZM350.06-23.3L350.06-24 354.46-24 354.46-23.3Q354.46-16.55 349.06-12.5L349.06-12.5Q351.66-10.6 353.06-7.78 354.46-4.95 354.46-1.8L354.46-1.8 354.46 0 350.06 0 350.06-1.8Q350.06-4.6 348.71-6.85 347.36-9.1 344.71-10.3L344.71-10.3Q342.11-9.05 340.74-6.7 339.36-4.35 339.36-1.5L339.36-1.5 339.36 0 334.96 0 334.96-1.5Q334.96-8.5 340.36-12.5L340.36-12.5Q334.96-16.55 334.96-23.6L334.96-23.6 334.96-24 339.36-24 339.36-23.6Q339.36-20.75 340.74-18.4 342.11-16.05 344.71-14.75L344.71-14.75Q350.06-17.25 350.06-23.3L350.06-23.3ZM375.86-5.25L375.86-5.25 378.86-2.3Q375.41 0.5 370.96 0.5L370.96 0.5Q365.41 0.5 362.06-3.08 358.71-6.65 358.71-12L358.71-12Q358.71-17.25 362.23-20.88 365.76-24.5 370.96-24.5L370.96-24.5Q375.41-24.5 378.86-21.7L378.86-21.7 375.91-18.7Q373.81-20.3 370.96-20.3L370.96-20.3Q367.51-20.3 365.48-18.03 363.46-15.75 363.46-12 363.46-8.25 365.48-5.98 367.51-3.7 370.96-3.7L370.96-3.7Q373.86-3.7 375.86-5.25ZM394.86-24.5L394.86-24.5Q403.36-24.15 403.36-17.45L403.36-17.45Q403.36-9.1 392.41-9.1L392.41-9.1 390.36-9.1 390.36-12.95 392.76-12.95Q396.11-12.95 397.41-13.98 398.71-15 398.71-17.4L398.71-17.4Q398.71-18.95 397.56-19.73 396.41-20.5 394.61-20.5L394.61-20.5Q391.06-20.5 389.03-18 387.01-15.5 387.01-12L387.01-12Q387.01-8.3 389.18-6 391.36-3.7 394.86-3.7L394.86-3.7Q398.01-3.7 400.01-5.25L400.01-5.25 403.01-2.3Q399.56 0.5 394.86 0.5L394.86 0.5Q389.16 0.5 385.76-2.85 382.36-6.2 382.36-11.5L382.36-11.5Q382.36-17.4 385.71-21.05 389.06-24.7 394.86-24.5ZM408.35-9.5L408.35-9.5 408.35-35 412.85-35 412.85-9.5Q412.85-7.7 413.28-6.58 413.7-5.45 414.6-4.98 415.5-4.5 416.35-4.35 417.2-4.2 418.6-4.2L418.6-4.2 418.6 0Q413 0 410.68-2.15 408.35-4.3 408.35-9.5ZM421.85-9.5L421.85-9.5 421.85-35 426.35-35 426.35-9.5Q426.35-7.7 426.78-6.58 427.2-5.45 428.1-4.98 429-4.5 429.85-4.35 430.7-4.2 432.1-4.2L432.1-4.2 432.1 0Q426.5 0 424.18-2.15 421.85-4.3 421.85-9.5ZM447.1-24.5L447.1-24.5Q455.6-24.15 455.6-17.45L455.6-17.45Q455.6-9.1 444.65-9.1L444.65-9.1 442.6-9.1 442.6-12.95 445-12.95Q448.35-12.95 449.65-13.98 450.95-15 450.95-17.4L450.95-17.4Q450.95-18.95 449.8-19.73 448.65-20.5 446.85-20.5L446.85-20.5Q443.3-20.5 441.27-18 439.25-15.5 439.25-12L439.25-12Q439.25-8.3 441.42-6 443.6-3.7 447.1-3.7L447.1-3.7Q450.25-3.7 452.25-5.25L452.25-5.25 455.25-2.3Q451.8 0.5 447.1 0.5L447.1 0.5Q441.4 0.5 438-2.85 434.6-6.2 434.6-11.5L434.6-11.5Q434.6-17.4 437.95-21.05 441.3-24.7 447.1-24.5ZM460.85 0L460.85-24 469.5-24Q475.05-24 477.45-22.35L477.45-22.35Q479.6-20.9 480.17-18.88 480.75-16.85 480.75-13.55L480.75-13.55 480.75 0 476.35 0 476.35-13.5Q476.35-14.4 476.3-15.03 476.25-15.65 475.95-16.63 475.65-17.6 475.1-18.23 474.55-18.85 473.5-19.33 472.45-19.8 470.95-19.8L470.95-19.8 465.25-19.8 465.25 0 460.85 0ZM503.14-5.25L503.14-5.25 506.14-2.3Q502.69 0.5 498.24 0.5L498.24 0.5Q492.69 0.5 489.34-3.08 485.99-6.65 485.99-12L485.99-12Q485.99-17.25 489.52-20.88 493.04-24.5 498.24-24.5L498.24-24.5Q502.69-24.5 506.14-21.7L506.14-21.7 503.19-18.7Q501.09-20.3 498.24-20.3L498.24-20.3Q494.79-20.3 492.77-18.03 490.74-15.75 490.74-12 490.74-8.25 492.77-5.98 494.79-3.7 498.24-3.7L498.24-3.7Q501.14-3.7 503.14-5.25ZM522.14-24.5L522.14-24.5Q530.64-24.15 530.64-17.45L530.64-17.45Q530.64-9.1 519.69-9.1L519.69-9.1 517.64-9.1 517.64-12.95 520.04-12.95Q523.39-12.95 524.69-13.98 525.99-15 525.99-17.4L525.99-17.4Q525.99-18.95 524.84-19.73 523.69-20.5 521.89-20.5L521.89-20.5Q518.34-20.5 516.32-18 514.29-15.5 514.29-12L514.29-12Q514.29-8.3 516.47-6 518.64-3.7 522.14-3.7L522.14-3.7Q525.29-3.7 527.29-5.25L527.29-5.25 530.29-2.3Q526.84 0.5 522.14 0.5L522.14 0.5Q516.44 0.5 513.04-2.85 509.64-6.2 509.64-11.5L509.64-11.5Q509.64-17.4 512.99-21.05 516.34-24.7 522.14-24.5ZM553.79-24L553.79 0 549.39 0 549.39-19.8 545.29-19.8 547.29-24 553.79-24ZM549.19-29L549.19-29Q548.54-29.85 548.54-30.85 548.54-31.85 549.19-32.68 549.84-33.5 551.19-33.5 552.54-33.5 553.19-32.68 553.84-31.85 553.84-30.85 553.84-29.85 553.19-29.03 552.54-28.2 551.19-28.2 549.84-28.2 549.19-29ZM560.73 0L560.73-24 569.38-24Q574.93-24 577.33-22.35L577.33-22.35Q579.48-20.9 580.06-18.88 580.63-16.85 580.63-13.55L580.63-13.55 580.63 0 576.23 0 576.23-13.5Q576.23-14.4 576.18-15.03 576.13-15.65 575.83-16.63 575.53-17.6 574.98-18.23 574.43-18.85 573.38-19.33 572.33-19.8 570.83-19.8L570.83-19.8 565.13-19.8 565.13 0 560.73 0ZM618.43-4.4L618.43 0 598.53 0 598.53-26.65Q598.53-30.35 600.88-32.6L600.88-32.6Q602.48-34.1 604.48-34.55 606.48-35 609.38-35L609.38-35 618.43-35 618.43-30.6 608.73-30.6Q603.23-30.6 603.23-26L603.23-26 603.23-20.3 614.78-20.3 614.78-15.9 603.23-15.9 603.23-4.4 618.43-4.4ZM632.28 0.55L632.28 0.55Q627.98-3.5 625.95-8.4 623.93-13.3 621.93-24L621.93-24 626.53-24Q628.48-11.95 632.28-5.75L632.28-5.75Q636.08-11.95 638.03-24L638.03-24 642.63-24Q640.63-13.3 638.6-8.4 636.58-3.5 632.28 0.55ZM658.62-24.5L658.62-24.5Q667.12-24.15 667.12-17.45L667.12-17.45Q667.12-9.1 656.17-9.1L656.17-9.1 654.12-9.1 654.12-12.95 656.52-12.95Q659.87-12.95 661.17-13.98 662.47-15 662.47-17.4L662.47-17.4Q662.47-18.95 661.32-19.73 660.17-20.5 658.37-20.5L658.37-20.5Q654.82-20.5 652.8-18 650.77-15.5 650.77-12L650.77-12Q650.77-8.3 652.95-6 655.12-3.7 658.62-3.7L658.62-3.7Q661.77-3.7 663.77-5.25L663.77-5.25 666.77-2.3Q663.32 0.5 658.62 0.5L658.62 0.5Q652.92 0.5 649.52-2.85 646.12-6.2 646.12-11.5L646.12-11.5Q646.12-17.4 649.47-21.05 652.82-24.7 658.62-24.5ZM675.77 0L671.37 0 671.37-13.65Q671.37-19.4 673.52-21.6L673.52-21.6Q674.57-22.7 676.07-23.25 677.57-23.8 678.7-23.9 679.82-24 681.77-24L681.77-24 686.17-24 686.17-19.8 680.87-19.8Q679.87-19.8 679.32-19.75 678.77-19.7 678.02-19.4 677.27-19.1 676.72-18.45L676.72-18.45Q675.77-17.25 675.77-13.65L675.77-13.65 675.77 0ZM688.67-11.65L688.67-24 693.07-24 693.07-11.45Q693.07-7.4 694.32-5.8 695.57-4.2 698.92-4.2L698.92-4.2 704.17-4.2 704.17-24 708.57-24 708.57-1.2Q708.57 5.05 705.29 8.22 702.02 11.4 695.02 11.4L695.02 11.4 691.42 11.4 691.42 7.2 694.57 7.2Q703.72 7.2 704.17 0L704.17 0 699.97 0Q693.42 0 691.04-2.3 688.67-4.6 688.67-11.65L688.67-11.65ZM730.41-12.8L730.41 0 725.96 0 725.96-22Q725.96-27.4 729.44-31.2 732.91-35 738.41-35L738.41-35 749.86-35 749.86 0 745.16 0 745.16-30.6 738.41-30.6Q734.76-30.6 732.59-28.45 730.41-26.3 730.41-21.6L730.41-21.6 730.41-17.35Q733.21-20.3 738.41-20.3L738.41-20.3 742.96-20.3 742.96-15.9 738.41-15.9Q735.51-15.9 733.69-15.2 731.86-14.5 730.41-12.8L730.41-12.8ZM776.26-24L776.26 0 767.61 0Q762.06 0 759.66-1.65L759.66-1.65Q757.51-3.1 756.94-5.13 756.36-7.15 756.36-10.45L756.36-10.45 756.36-24 760.76-24 760.76-10.5Q760.76-9.6 760.81-8.97 760.86-8.35 761.16-7.38 761.46-6.4 762.01-5.78 762.56-5.15 763.61-4.67 764.66-4.2 766.16-4.2L766.16-4.2 771.86-4.2 771.86-24 776.26-24ZM801.26-4.2L801.26-35 805.76-35 805.76 0 794.01 0Q788.56 0 785.16-3.48 781.76-6.95 781.76-12.25L781.76-12.25Q781.76-17.45 785.28-20.98 788.81-24.5 793.66-24.5L793.66-24.5Q796.76-24.5 799.46-23L799.46-23 799.46-18.5Q796.96-20.3 793.66-20.3L793.66-20.3Q790.66-20.3 788.58-18.07 786.51-15.85 786.51-12.25L786.51-12.25Q786.51-8.6 788.48-6.4 790.46-4.2 794.01-4.2L794.01-4.2 801.26-4.2ZM818.26-24L818.26 0 813.86 0 813.86-19.8 809.76-19.8 811.76-24 818.26-24ZM813.66-29L813.66-29Q813.01-29.85 813.01-30.85 813.01-31.85 813.66-32.68 814.31-33.5 815.66-33.5 817.01-33.5 817.66-32.68 818.31-31.85 818.31-30.85 818.31-29.85 817.66-29.03 817.01-28.2 815.66-28.2 814.31-28.2 813.66-29ZM826.9-19.8L822.45-19.8 831.4-28.75 831.4-24 838.15-24 838.15-19.8 831.4-19.8 831.4-9.5Q831.4-7.75 831.98-6.6 832.55-5.45 833.65-4.98 834.75-4.5 835.73-4.35 836.7-4.2 838.15-4.2L838.15-4.2 838.15 0Q832.4 0 829.65-2.2 826.9-4.4 826.9-9.5L826.9-9.5 826.9-19.8Z" opacity="1" transform="matrix(1,0,0,1,0,0)" fill="#ffffff" class="slogan-text-1" data-fill-palette-color="secondary" id="text-1"></path></svg></g></svg></g></svg></g></svg></g><g transform="matrix(1,0,0,1,163.89824846339894,0)"><svg viewBox="0 0 69.70110307320202 55.55038512728054" height="55.55038512728054" width="69.70110307320202"><g><svg xmlns="http://www.w3.org/2000/svg" xmlns:xlink="http://www.w3.org/1999/xlink" version="1.1" x="0" y="0" viewBox="0 10.152 100 79.698" enable-background="new 0 0 100 100" xml:space="preserve" height="55.55038512728054" width="69.70110307320202" class="icon-icon-0" data-fill-palette-color="accent" id="icon-0"><g fill="#aecf75" data-fill-palette-color="accent"><g fill="#aecf75" data-fill-palette-color="accent"><path d="M84.107 72.352H15.893L0 89.85h100L84.107 72.352zM33.171 82.354H12.717l2.18-2.513h18.999L33.171 82.354zM39.353 82.354l0.728-2.513h19.838l0.728 2.513H39.353zM66.104 79.842h19.002l2.177 2.514H66.827L66.104 79.842z" fill="#ffffff" data-fill-palette-color="accent"></path><g fill="#aecf75" data-fill-palette-color="accent"><path d="M51.166 18.255c-0.031 0-0.063 0.001-0.094 0.001-0.028 0-0.061-0.001-0.092-0.001H51.166z" fill="#ffffff" data-fill-palette-color="accent"></path><path d="M50.447 10.152c-11.112 0-20.121 9.009-20.121 20.122 0 8.734 5.573 16.146 13.349 18.93l6.771 18.431 6.777-18.431c7.771-2.785 13.346-10.196 13.346-18.93C70.568 19.161 61.559 10.152 50.447 10.152zM58.036 29.938v9.056h-6.451v-5.413h-2.913v5.413h-6.456v-9.056h-2.499l10.411-10.613 3.744 3.818v-1.947h2.915v4.92l3.749 3.822H58.036z" fill="#ffffff" data-fill-palette-color="accent"></path></g></g></g></svg></g></svg></g><g></g></svg></g><defs></defs></svg><rect width="395.52" height="111.89184314217141" fill="none" stroke="none" visibility="hidden"></rect></g></svg></g></svg>